HIERARCHY
ROOT root
{
	OFFSET	0	13.1	24.9
	CHANNELS 6  Xposition Yposition Zposition Xrotation Yrotation Zrotation
	JOINT spine_1
	{
		OFFSET	0	9.99999	0
		CHANNELS 3  Xrotation Yrotation Zrotation
		JOINT spine_2
		{
			OFFSET	0	112	-10
			CHANNELS 3  Xrotation Yrotation Zrotation
			JOINT spine_3
			{
				OFFSET	0	206.5	19.3
				CHANNELS 3  Xrotation Yrotation Zrotation
				JOINT spine_4
				{
					OFFSET	0	110.4	14.6
					CHANNELS 3  Xrotation Yrotation Zrotation
					JOINT neck_1
					{
						OFFSET	0	71.8	-50.3
						CHANNELS 3  Xrotation Yrotation Zrotation
						JOINT neck_2
						{
							OFFSET	0	86.2	-25.8
							CHANNELS 3  Xrotation Yrotation Zrotation
							JOINT head_ee
							{
								OFFSET	0	179.8	-8.7
								CHANNELS 3  Xrotation Yrotation Zrotation
								End Site
								{
									OFFSET	1	0	0
								}
							}
						}
					}
					JOINT left_clavicle
					{
						OFFSET	-43.2	22.4	-70.8
						CHANNELS 3  Xrotation Yrotation Zrotation
						JOINT left_shoulder
						{
							OFFSET	-93.9	-5.79999	48.7
							CHANNELS 3  Xrotation Yrotation Zrotation
							JOINT left_elbow
							{
								OFFSET	-291.4	-30.8	15.2
								CHANNELS 3  Xrotation Yrotation Zrotation
								JOINT left_lowarm_twist
								{
									OFFSET	-110.7	-3.89999	13.6
									CHANNELS 3  Xrotation Yrotation Zrotation
									JOINT left_hand
									{
										OFFSET	-110.7	-3.89999	13.6
										CHANNELS 3  Xrotation Yrotation Zrotation
										JOINT left_ee
										{
											OFFSET	-80.8	-5.10001	12.1
											CHANNELS 3  Xrotation Yrotation Zrotation
											End Site
											{
												OFFSET	1	0	0
											}
										}
									}
								}
							}
						}
					}
					JOINT right_clavicle
					{
						OFFSET	43.2	22.4	-70.8
						CHANNELS 3  Xrotation Yrotation Zrotation
						JOINT right_shoulder
						{
							OFFSET	93.9	-5.79999	48.7
							CHANNELS 3  Xrotation Yrotation Zrotation
							JOINT right_elbow
							{
								OFFSET	291.4	-30.8	15.2
								CHANNELS 3  Xrotation Yrotation Zrotation
								JOINT right_lowarm_twist
								{
									OFFSET	110.7	-3.89999	13.6
									CHANNELS 3  Xrotation Yrotation Zrotation
									JOINT right_hand
									{
										OFFSET	110.7	-3.89999	13.6
										CHANNELS 3  Xrotation Yrotation Zrotation
										JOINT right_ee
										{
											OFFSET	80.8	-5.10001	12.1
											CHANNELS 3  Xrotation Yrotation Zrotation
											End Site
											{
												OFFSET	1	0	0
											}
										}
									}
								}
							}
						}
					}
				}
			}
		}
	}
	JOINT left_hip
	{
		OFFSET	-82.8	-127.5	0.300001
		CHANNELS 3  Xrotation Yrotation Zrotation
		JOINT left_knee
		{
			OFFSET	-28.2	-396.7	2.2
			CHANNELS 3  Xrotation Yrotation Zrotation
			JOINT left_ankle
			{
				OFFSET	-11.7	-411.3	35.4
				CHANNELS 3  Xrotation Yrotation Zrotation
				JOINT left_toes
				{
					OFFSET	0	-60	-88.6
					CHANNELS 3  Xrotation Yrotation Zrotation
					JOINT left_foot_ee
					{
						OFFSET	-22.5	-16.5	-42.2
						CHANNELS 3  Xrotation Yrotation Zrotation
						End Site
						{
							OFFSET	1	0	0
						}
					}
				}
			}
		}
	}
	JOINT right_hip
	{
		OFFSET	82.8	-127.5	0.300001
		CHANNELS 3  Xrotation Yrotation Zrotation
		JOINT right_knee
		{
			OFFSET	28.2	-396.7	2.2
			CHANNELS 3  Xrotation Yrotation Zrotation
			JOINT right_ankle
			{
				OFFSET	11.7	-411.3	35.4
				CHANNELS 3  Xrotation Yrotation Zrotation
				JOINT right_toes
				{
					OFFSET	0	-60	-88.6
					CHANNELS 3  Xrotation Yrotation Zrotation
					JOINT right_foot_ee
					{
						OFFSET	22.5	-16.5	-42.2
						CHANNELS 3  Xrotation Yrotation Zrotation
						End Site
						{
							OFFSET	1	0	0
						}
					}
				}
			}
		}
	}
}
MOTION
Frames: 8
Frame Time: 0.02
929.363556799 804.739 -1393.81708223 160.612982206 56.2009214574 -155.450451795 -7.55333 -0.565213 -4.27071 -7.54323 -0.292568 -4.29796 -7.49672 1.17004 -4.14623 -7.52035 0.50117 -4.27868 -3.69508 2.07537 1.78046 -3.68604 2.41554 2.15894 -0.0 0.0 -0.0 10.1321 20.6217 17.5622 -3.42633 -23.8354 72.075 0.180677 -5.11459 0.00806952 -20.6587 -1.16613 2.35588 -1.21556 21.5732 1.52489 -0.0 0.0 -0.0 10.075 16.6799 -19.7793 37.7887 12.1496 -45.4908 1.44296 35.555 -0.462679 25.9847 -0.172905 3.28651 7.15084 -30.7686 -65.72 0.0 0.0 0.0 20.6461 -27.1715 4.36763 -76.5726 -4.22844 10.0712 -2.06473 26.7246 0.319624 34.2619 -0.0 -0.0 -0.0 0.0 -0.0 3.58234 10.8469 -15.5956 -36.8157 0.276711 -5.54733 41.7098 -18.8058 5.15561 16.8084 -0.0 -0.0 0.0 0.0 0.0 
927.943775295 804.739 -1401.95757311 160.074386492 57.1915258756 -154.806048285 -7.55333 -0.565213 -4.27071 -7.54323 -0.292568 -4.29796 -7.49672 1.17004 -4.14623 -7.52035 0.50117 -4.27868 -3.69508 2.07537 1.78046 -3.68604 2.41554 2.15894 -0.0 0.0 -0.0 10.1321 20.6217 17.5622 -3.42633 -23.8354 72.075 0.180677 -5.11459 0.00806952 -20.6587 -1.16613 2.35588 -1.21556 21.5732 1.52489 -0.0 0.0 -0.0 10.075 16.6799 -19.7793 37.7887 12.1496 -45.4908 1.44296 35.555 -0.462679 25.9847 -0.172905 3.28651 7.15084 -30.7686 -65.72 0.0 0.0 0.0 20.6461 -27.1715 4.36763 -76.5726 -4.22844 10.0712 -2.06473 26.7246 0.319624 34.2619 -0.0 -0.0 -0.0 0.0 -0.0 3.58234 10.8469 -15.5956 -36.8157 0.276711 -5.54733 41.7098 -18.8058 5.15561 16.8084 -0.0 -0.0 0.0 0.0 0.0 
914.947801954 805.469 -1394.32895883 160.282072149 56.4384156883 -155.708187265 -7.38747 -0.489243 -4.08463 -7.37822 -0.22856 -4.10743 -7.34008 1.1554 -3.94845 -7.36145 0.517863 -4.0811 -3.36968 1.83806 1.93144 -3.35958 1.85103 2.27677 -0.0 0.0 -0.0 9.77799 18.8772 17.281 -5.7226 -21.9472 71.0312 0.161609 -4.57724 0.00645876 -20.4353 -1.14909 2.33289 -1.18677 26.9994 4.05019 -0.0 0.0 -0.0 9.95042 18.3595 -19.4036 39.0932 12.9801 -45.1761 1.48505 36.3377 -0.48739 25.8745 -0.175333 3.27263 7.16275 -31.158 -65.7845 0.0 0.0 0.0 25.9313 -29.3898 8.1294 -70.0495 -3.37707 9.53298 -1.50077 27.4667 0.233076 33.9121 -0.0 -0.0 -0.0 0.0 -0.0 1.50353 8.86792 -14.7564 -34.0975 0.134561 -5.15469 41.8016 -19.6577 5.1834 16.7404 -0.0 -0.0 0.0 0.0 0.0 
902.482782281 815.347 -1381.95355896 163.335166567 54.9838192807 -159.68040918 -7.10499 -0.568088 -3.67867 -7.09752 -0.333018 -3.70731 -7.05807 0.905099 -3.61065 -7.07611 0.323918 -3.70811 -3.38413 1.76264 3.34173 -3.35385 0.621208 3.7266 -0.0 0.0 -0.0 9.71311 17.8267 17.3343 -7.75782 -20.2406 69.8881 0.165135 -4.67668 0.00674325 -20.4911 -1.15334 2.33864 -1.04311 28.9009 5.6365 -0.0 0.0 -0.0 10.6208 19.1547 -20.8562 40.7521 12.6049 -44.2874 1.54231 37.3778 -0.521738 25.8466 -0.175944 3.26912 7.20424 -30.2552 -66.7958 0.0 0.0 0.0 26.6631 -29.5525 8.7307 -64.5289 -2.70835 9.00478 0.504436 28.0032 -0.0782696 34.9833 -0.0 -0.0 -0.0 0.0 -0.0 0.308814 8.64618 -13.3664 -30.7501 -0.0146038 -4.66279 41.1901 -18.5257 5.10343 16.8693 -0.0 -0.0 0.0 0.0 0.0 
880.771117151 820.107 -1380.01175828 163.178265644 54.8065870583 -160.345998745 -7.18591 -0.577547 -3.34092 -7.17977 -0.36391 -3.37085 -7.14315 0.769902 -3.30194 -7.15828 0.239073 -3.38198 -4.03409 3.10989 4.67883 -3.97568 2.10143 5.30794 -0.0 0.0 -0.0 9.45662 16.7397 17.0597 -10.3187 -18.7478 68.2994 0.17137 -4.85243 0.00726104 -20.0592 -1.12062 2.29404 -0.647047 29.1891 7.88999 -0.0 0.0 -0.0 11.205 19.4682 -22.1563 41.4266 13.4094 -43.5317 1.7479 40.8843 -0.651546 26.1046 -0.170236 3.30158 7.25463 -29.8505 -67.835 0.0 0.0 0.0 28.4625 -26.9537 7.205 -57.5801 -1.94443 8.25347 6.83549 28.1707 -1.04529 36.8644 -0.0 -0.0 -0.0 0.0 -0.0 -1.3783 3.78674 -11.5442 -31.354 0.0101732 -4.75215 41.3546 -19.7645 5.14619 17.2329 -0.0 -0.0 0.0 0.0 0.0 
880.920322664 820.107 -1379.24505502 163.214866199 54.7209746358 -160.390809501 -7.18591 -0.577547 -3.34092 -7.17977 -0.36391 -3.37085 -7.14315 0.769902 -3.30194 -7.15828 0.239073 -3.38198 -4.03409 3.10989 4.67883 -3.97568 2.10143 5.30794 -0.0 0.0 -0.0 9.45662 16.7397 17.0597 -10.3187 -18.7478 68.2994 0.17137 -4.85243 0.00726104 -20.0592 -1.12062 2.29404 -0.647047 29.1891 7.88999 -0.0 0.0 -0.0 11.205 19.4682 -22.1563 41.4266 13.4094 -43.5317 1.7479 40.8843 -0.651546 26.1046 -0.170236 3.30158 7.25463 -29.8505 -67.835 0.0 0.0 0.0 28.4625 -26.9537 7.205 -57.5801 -1.94443 8.25347 6.83549 28.1707 -1.04529 36.8644 -0.0 -0.0 -0.0 0.0 -0.0 -1.3783 3.78674 -11.5442 -31.354 0.0101732 -4.75215 41.3546 -19.7645 5.14619 17.2329 -0.0 -0.0 0.0 0.0 0.0 
868.707817934 825.152 -1375.18931896 164.415105354 54.8704383518 -162.068094 -7.04589 -0.549007 -2.9367 -7.04117 -0.361109 -2.96565 -7.0107 0.631776 -2.92003 -7.02256 0.162899 -2.98309 -4.13352 3.11457 5.06931 -4.06458 1.8205 5.70953 -0.0 0.0 -0.0 9.20069 16.6288 16.6441 -11.7638 -17.6607 67.2399 0.186043 -5.26565 0.00855502 -19.9844 -1.11498 2.28629 -0.570794 28.9926 8.22705 -0.0 0.0 -0.0 11.5538 19.0467 -22.9779 42.4836 13.8499 -43.2409 1.88716 43.0669 -0.744704 26.1633 -0.168915 3.30897 7.28731 -29.9888 -68.4058 0.0 0.0 0.0 29.9884 -26.5457 6.79987 -51.3854 -1.34495 7.51099 10.4815 28.13 -1.58543 37.3759 -0.0 -0.0 -0.0 0.0 -0.0 -2.11937 3.18023 -11.2159 -28.9394 -0.0832256 -4.39339 40.2591 -21.8797 5.09977 17.1935 -0.0 -0.0 0.0 0.0 0.0 
852.616802819 824.042 -1366.81504481 163.68526968 54.8458449832 -161.47089913 -6.95495 -0.560885 -2.84475 -6.95052 -0.378806 -2.87465 -6.92045 0.580672 -2.84079 -6.9317 0.124933 -2.89679 -3.92884 3.25765 5.07131 -3.86013 2.05919 5.736 -0.0 0.0 -0.0 8.88185 15.6656 16.2229 -13.1586 -15.4067 67.0326 0.179933 -5.09363 0.00800338 -18.9828 -1.04052 2.18183 -0.36041 29.1763 9.43845 -0.0 0.0 -0.0 12.1462 19.1953 -24.3245 43.6878 14.2366 -44.1164 2.08942 45.9808 -0.886576 26.1763 -0.168622 3.31061 7.31588 -29.6832 -69.069 0.0 0.0 0.0 30.9089 -26.1311 5.80382 -47.3885 -1.00241 6.99984 13.8087 28.7758 -2.07503 37.8698 -0.0 -0.0 -0.0 0.0 -0.0 -4.42959 1.6588 -11.1721 -28.766 -0.0893481 -4.36749 40.7326 -20.3705 5.10465 16.8174 -0.0 -0.0 0.0 0.0 0.0 
